<?xml version="1.0" encoding="utf-8"?>
<!-- Generator: Adobe Illustrator 16.0.0, SVG Export Plug-In . SVG Version: 6.00 Build 0)  -->
<!DOCTYPE svg PUBLIC "-//W3C//DTD SVG 1.1//EN" "http://www.w3.org/Graphics/SVG/1.1/DTD/svg11.dtd">
<svg version="1.1" id="Layer_1" xmlns="http://www.w3.org/2000/svg" xmlns:xlink="http://www.w3.org/1999/xlink" x="0px" y="0px"
	 width="64.356px" height="62.5px" viewBox="0 0 64.356 62.5" enable-background="new 0 0 64.356 62.5" xml:space="preserve">
<g>
	<defs>
		<rect id="SVGID_1_" width="64.357" height="62.5"/>
	</defs>
	<clipPath id="SVGID_2_">
		<use xlink:href="#SVGID_1_"  overflow="visible"/>
	</clipPath>
	
		<path clip-path="url(#SVGID_2_)" fill="none" stroke="#738083" stroke-width="2.5" stroke-linecap="round" stroke-linejoin="round" stroke-miterlimit="10" d="
		M38.584,53.742V45.25H1.25v8.492c0,6.425,2.667,7.508,6.917,7.508h36.917C41.177,61.25,38.584,58.834,38.584,53.742z"/>
	
		<path clip-path="url(#SVGID_2_)" fill="none" stroke="#738083" stroke-width="2.5" stroke-linecap="round" stroke-linejoin="round" stroke-miterlimit="10" d="
		M52.107,44.834v8.908c0,5.603-3.44,7.508-7.023,7.508"/>
	
		<path clip-path="url(#SVGID_2_)" fill="none" stroke="#738083" stroke-width="2.5" stroke-linecap="round" stroke-linejoin="round" stroke-miterlimit="10" d="
		M52.107,44.834V9.75c0-2.841-0.357-8.5,5.328-8.5"/>
	
		<path clip-path="url(#SVGID_2_)" fill="none" stroke="#738083" stroke-width="2.5" stroke-linecap="round" stroke-linejoin="round" stroke-miterlimit="10" d="
		M52.291,17.25h10.815v-7.5c0-2.924-0.022-8.5-5.671-8.5H19.083c-4.584,0-7.977,2.897-7.977,8.5v35.5"/>
	
		<line clip-path="url(#SVGID_2_)" fill="none" stroke="#738083" stroke-width="2.5" stroke-linecap="round" stroke-linejoin="round" stroke-miterlimit="10" x1="18.936" y1="13.371" x2="44.937" y2="13.371"/>
	
		<line clip-path="url(#SVGID_2_)" fill="none" stroke="#738083" stroke-width="2.5" stroke-linecap="round" stroke-linejoin="round" stroke-miterlimit="10" x1="18.936" y1="21.371" x2="44.937" y2="21.371"/>
	
		<line clip-path="url(#SVGID_2_)" fill="none" stroke="#738083" stroke-width="2.5" stroke-linecap="round" stroke-linejoin="round" stroke-miterlimit="10" x1="18.936" y1="29.371" x2="37.107" y2="29.371"/>
	
		<line clip-path="url(#SVGID_2_)" fill="none" stroke="#738083" stroke-width="2.5" stroke-linecap="round" stroke-linejoin="round" stroke-miterlimit="10" x1="18.936" y1="38.371" x2="31.936" y2="38.371"/>
</g>
</svg>
