<?xml version="1.0" encoding="utf-8"?>
<!-- Generator: Adobe Illustrator 16.0.0, SVG Export Plug-In . SVG Version: 6.00 Build 0)  -->
<!DOCTYPE svg PUBLIC "-//W3C//DTD SVG 1.1//EN" "http://www.w3.org/Graphics/SVG/1.1/DTD/svg11.dtd">
<svg version="1.1" id="Layer_1" xmlns="http://www.w3.org/2000/svg" xmlns:xlink="http://www.w3.org/1999/xlink" x="0px" y="0px"
	 width="12.396px" height="8.594px" viewBox="0 0 12.396 8.594" enable-background="new 0 0 12.396 8.594" xml:space="preserve">
<path fill="#FF7800" d="M11.864,2.258L7.31,7.887C6.992,8.229,6.534,8.545,6.12,8.42C5.806,8.438,5.484,8.119,5.24,7.875
	l-4.682-5.64C0.091,1.764,0.076,1.006,0.526,0.518C0.955,0.05,1.683,0.02,2.15,0.449c0.013,0.013,0.025,0.024,0.039,0.038
	l4.033,4.996l3.914-4.943c0.437-0.477,1.177-0.508,1.652-0.072c0.016,0.014,0.028,0.027,0.042,0.041
	C12.307,0.989,12.322,1.76,11.864,2.258z"/>
</svg>
