<?xml version="1.0" encoding="utf-8"?>
<!-- Generator: Adobe Illustrator 16.0.0, SVG Export Plug-In . SVG Version: 6.00 Build 0)  -->
<!DOCTYPE svg PUBLIC "-//W3C//DTD SVG 1.1//EN" "http://www.w3.org/Graphics/SVG/1.1/DTD/svg11.dtd">
<svg version="1.1" id="Layer_1" xmlns="http://www.w3.org/2000/svg" xmlns:xlink="http://www.w3.org/1999/xlink" x="0px" y="0px"
	 width="65.729px" height="54.349px" viewBox="0 0 65.729 54.349" enable-background="new 0 0 65.729 54.349" xml:space="preserve">
<g>
	<defs>
		<rect id="SVGID_1_" y="0" width="65.729" height="54.349"/>
	</defs>
	<clipPath id="SVGID_2_">
		<use xlink:href="#SVGID_1_"  overflow="visible"/>
	</clipPath>
	
		<path clip-path="url(#SVGID_2_)" fill="none" stroke="#7C7C7C" stroke-width="2" stroke-linecap="round" stroke-linejoin="round" stroke-miterlimit="10" d="
		M63.729,41.969H2c-0.552,0-1-0.448-1-1V2c0-0.552,0.448-1,1-1h61.729c0.553,0,1,0.448,1,1v38.969
		C64.729,41.521,64.281,41.969,63.729,41.969z"/>
	
		<path clip-path="url(#SVGID_2_)" fill="none" stroke="#7C7C7C" stroke-width="2" stroke-linecap="round" stroke-linejoin="round" stroke-miterlimit="10" d="
		M64.729,45.383c0,1.257-1.019,2.275-2.275,2.275H3.276C2.019,47.658,1,46.64,1,45.383"/>
	
		<path clip-path="url(#SVGID_2_)" fill="none" stroke="#7C7C7C" stroke-width="2" stroke-linecap="round" stroke-linejoin="round" stroke-miterlimit="10" d="
		M64.729,39.692v11.381c0,1.257-1.019,2.274-2.275,2.274H3.276C2.019,53.348,1,52.33,1,51.073V39.692"/>
	<use xlink:href="#SVGID_1_"  overflow="visible" fill="none" stroke="#7C7C7C" stroke-miterlimit="10"/>
</g>
</svg>
