<?xml version="1.0" encoding="utf-8"?>
<!-- Generator: Adobe Illustrator 16.0.0, SVG Export Plug-In . SVG Version: 6.00 Build 0)  -->
<!DOCTYPE svg PUBLIC "-//W3C//DTD SVG 1.1//EN" "http://www.w3.org/Graphics/SVG/1.1/DTD/svg11.dtd">
<svg version="1.1" id="Layer_1" xmlns="http://www.w3.org/2000/svg" xmlns:xlink="http://www.w3.org/1999/xlink" x="0px" y="0px"
	 width="50.527px" height="50.919px" viewBox="0 0 50.527 50.919" enable-background="new 0 0 50.527 50.919" xml:space="preserve">
<g>
	<defs>
		<rect id="SVGID_1_" width="50.527" height="50.919"/>
	</defs>
	<clipPath id="SVGID_2_">
		<use xlink:href="#SVGID_1_"  overflow="visible"/>
	</clipPath>
	<polygon clip-path="url(#SVGID_2_)" fill="#FFFFFF" points="36.423,24.282 36.35,40.318 1.452,40.324 1.452,45.672 50.528,45.672 
		50.528,33.468 45.102,24.282 	"/>
	<g clip-path="url(#SVGID_2_)">
		<defs>
			<rect id="SVGID_3_" y="0" width="50.528" height="50.919"/>
		</defs>
		<clipPath id="SVGID_4_">
			<use xlink:href="#SVGID_3_"  overflow="visible"/>
		</clipPath>
		<g opacity="0.8" clip-path="url(#SVGID_4_)">
			<g>
				<defs>
					<rect id="SVGID_5_" x="37.192" y="25.135" width="11.398" height="7.149"/>
				</defs>
				<clipPath id="SVGID_6_">
					<use xlink:href="#SVGID_5_"  overflow="visible"/>
				</clipPath>
				<polygon clip-path="url(#SVGID_6_)" points="37.192,25.135 44.35,25.135 48.59,32.283 37.192,32.283 				"/>
			</g>
		</g>
	</g>
	<polygon clip-path="url(#SVGID_2_)" fill="#FF7800" points="36.396,13.635 36.396,40.319 1.452,40.319 1.452,13.662 	"/>
	<rect y="7.107" clip-path="url(#SVGID_2_)" fill="#FF7800" width="37.817" height="7.417"/>
	<polygon clip-path="url(#SVGID_2_)" fill="#FF7800" points="9.354,0 9.354,7.107 28.375,7.107 28.375,0.048 21.86,0.048 
		19.906,3.485 17.615,3.485 15.49,0 	"/>
	<rect x="15.439" y="7.179" clip-path="url(#SVGID_2_)" fill="#FFFFFF" width="7.072" height="33.14"/>
	<g clip-path="url(#SVGID_2_)">
		<defs>
			<rect id="SVGID_7_" y="0" width="50.528" height="50.919"/>
		</defs>
		<clipPath id="SVGID_8_">
			<use xlink:href="#SVGID_7_"  overflow="visible"/>
		</clipPath>
		<g opacity="0.12" clip-path="url(#SVGID_8_)">
			<g>
				<defs>
					<rect id="SVGID_9_" x="1.452" y="14.525" width="34.945" height="4.13"/>
				</defs>
				<clipPath id="SVGID_10_">
					<use xlink:href="#SVGID_9_"  overflow="visible"/>
				</clipPath>
				<rect x="1.451" y="14.524" clip-path="url(#SVGID_10_)" width="34.945" height="4.131"/>
			</g>
		</g>
		<path clip-path="url(#SVGID_8_)" d="M36.396,46.025c0,2.703,2.191,4.895,4.896,4.895c2.703,0,4.894-2.191,4.894-4.895
			s-2.19-4.896-4.894-4.896C38.588,41.129,36.396,43.322,36.396,46.025"/>
		<path clip-path="url(#SVGID_8_)" fill="#FFFFFF" d="M38.812,46.025c0,1.37,1.11,2.479,2.479,2.479c1.37,0,2.479-1.108,2.479-2.479
			c0-1.369-1.109-2.479-2.479-2.479C39.922,43.545,38.812,44.656,38.812,46.025"/>
		<path clip-path="url(#SVGID_8_)" d="M7.353,46.025c0,2.703,2.191,4.895,4.895,4.895c2.703,0,4.894-2.191,4.894-4.895
			s-2.191-4.896-4.894-4.896C9.544,41.129,7.353,43.322,7.353,46.025"/>
		<path clip-path="url(#SVGID_8_)" fill="#FFFFFF" d="M9.768,46.025c0,1.37,1.11,2.479,2.479,2.479c1.37,0,2.48-1.108,2.48-2.479
			c0-1.369-1.11-2.479-2.48-2.479C10.878,43.545,9.768,44.656,9.768,46.025"/>
		<g opacity="0.2" clip-path="url(#SVGID_8_)">
			<g>
				<defs>
					<rect id="SVGID_11_" x="37.192" y="33.276" width="2.353" height="0.302"/>
				</defs>
				<clipPath id="SVGID_12_">
					<use xlink:href="#SVGID_11_"  overflow="visible"/>
				</clipPath>
				<rect x="37.193" y="33.276" clip-path="url(#SVGID_12_)" width="2.353" height="0.302"/>
			</g>
		</g>
	</g>
</g>
</svg>
