<?xml version="1.0" encoding="utf-8"?>
<!-- Generator: Adobe Illustrator 16.0.0, SVG Export Plug-In . SVG Version: 6.00 Build 0)  -->
<!DOCTYPE svg PUBLIC "-//W3C//DTD SVG 1.1//EN" "http://www.w3.org/Graphics/SVG/1.1/DTD/svg11.dtd">
<svg version="1.1" id="Layer_1" xmlns="http://www.w3.org/2000/svg" xmlns:xlink="http://www.w3.org/1999/xlink" x="0px" y="0px"
	 width="207.251px" height="189.633px" viewBox="0 0 207.251 189.633" enable-background="new 0 0 207.251 189.633"
	 xml:space="preserve">
<g>
	<defs>
		<rect id="SVGID_1_" width="207.251" height="189.633"/>
	</defs>
	<clipPath id="SVGID_2_">
		<use xlink:href="#SVGID_1_"  overflow="visible"/>
	</clipPath>
	<path clip-path="url(#SVGID_2_)" fill="#FFFFFF" d="M68.128,80.415c-0.096-1.901-0.09-8.906-0.379-10.299
		c-0.123-0.595-0.465-0.871-0.913-0.986c-0.705-0.181-1.671,0.041-2.455,0.061c-1.611,0.043-3.323,0.097-4.873,0.147
		c-2.854,0.093-5.708,0.178-8.563,0.232c-5.766,0.112-11.514-0.005-17.263-0.015c-1.176-0.002-2.557,0.192-3.352-0.95
		c-0.641-0.921-0.639-2.282-0.788-3.353c-0.237-1.692-0.366-3.4-0.46-5.108c0.216,0.193,0.499,0.313,0.811,0.306l37.378,0.168
		c0.313-0.007,0.611-0.138,0.828-0.365c0.216-0.228,0.334-0.531,0.326-0.845l-0.245-9.586c-0.008-0.317-0.143-0.617-0.374-0.834
		c-0.232-0.216-0.54-0.33-0.857-0.316l-37.353,0.745c-0.281,0.013-0.524,0.134-0.72,0.306c0.035-3.089,0.142-6.177,0.291-9.259
		l39.07-0.848c0.37-0.005,0.72-0.16,0.971-0.43c0.251-0.271,0.381-0.631,0.359-1l-0.535-9.049c-0.043-0.715-0.635-1.273-1.367-1.272
		l-38.432,0.846l-0.179-3.802c0.004-0.367-0.143-0.721-0.405-0.978c-0.263-0.256-0.62-0.396-0.987-0.385l-11.836,0.365
		c-0.691,0.022-1.256,0.563-1.304,1.253l-0.621,2.589l-5.664,0.42c-0.725,0.029-1.297,0.625-1.297,1.35l0.014,9.923
		c0,0.366,0.15,0.716,0.413,0.971c0.264,0.254,0.615,0.391,0.986,0.377l5.732-0.196c-0.349,6.957-0.428,31.907,3.485,38.086
		c1.966,3.1,6.778,4.668,14.302,4.657c5.701-0.008,34.925-1.489,35.142-1.528C67.687,81.695,68.163,81.096,68.128,80.415"/>
	<path clip-path="url(#SVGID_2_)" fill="#FFFFFF" d="M87.264,98.245c-0.345-0.261-0.814-0.44-1.456-0.52
		c-1.805-0.22-9.815,1.171-12.112,1.307c-2.68,0.157-5.828,0.764-8.086-1.076c-0.747-0.609-1.187-1.466-1.395-2.396
		c-0.237-1.058-0.41-2.086-0.541-3.185c-0.109-0.917-0.138-1.82-0.098-2.73c0.033-0.77-0.242-1.601-0.9-2.052
		c-0.56-0.384-1.457-0.204-2.092-0.176c-0.954,0.044-1.907,0.097-2.859,0.155c-1.906,0.117-3.811,0.259-5.715,0.402
		c-1.054,0.079-1.882,0.956-1.906,2.012c-0.088,3.874-0.217,7.859,0.511,11.685c0.27,1.422,0.687,2.795,1.263,4.122
		c2.735,6.302,9.492,7.135,15.634,7.126c5.701-0.008,19.785-1.938,20.003-1.978c0.672-0.117,1.148-0.718,1.114-1.397
		c-0.128-2.478-0.152-4.957-0.314-7.433C88.212,100.549,88.313,99.034,87.264,98.245"/>
	<path clip-path="url(#SVGID_2_)" fill="#FFFFFF" d="M87.314,27.902l-12.629,0.015c-0.362,0.001-0.71,0.146-0.963,0.405
		c-0.254,0.259-0.392,0.608-0.386,0.971l0.941,50.128c0.015,0.737,0.615,1.326,1.352,1.325l11.584-0.014
		c0.745-0.001,1.347-0.604,1.349-1.348l0.105-50.129c0-0.36-0.142-0.704-0.397-0.957C88.017,28.044,87.672,27.901,87.314,27.902"/>
	<path clip-path="url(#SVGID_2_)" fill="#FFFFFF" d="M172.031,64.497c-0.354-0.263-0.833-0.402-1.322-0.388l-13.027,0.4
		l-0.178-24.07l13.135-1.096c0.39-0.011,0.759-0.182,1.021-0.473c0.263-0.291,0.395-0.676,0.364-1.065l-0.717-9.587
		c-0.058-0.758-0.695-1.338-1.453-1.325h-0.018l-12.425,1.049l-0.011-1.438c-0.005-0.381-0.161-0.744-0.435-1.009
		s-0.641-0.41-1.021-0.403l-11.626,0.198c-0.385,0.006-0.751,0.167-1.014,0.445c-0.266,0.279-0.407,0.652-0.394,1.035l0.075,2.392
		l-15.739,1.329l-0.627-4.556c-0.002-0.389-0.163-0.761-0.445-1.03c-0.282-0.267-0.662-0.41-1.053-0.391l-12.544,0.583
		c-0.732,0.034-1.32,0.617-1.361,1.35l-0.241,3.283l-15.255,0.58c-0.77,0.042-1.367,0.685-1.354,1.455l0.18,10.519
		c0.007,0.389,0.171,0.758,0.454,1.023c0.284,0.264,0.659,0.404,1.051,0.383l16.261-0.593c-0.137,4.01-0.376,13.721,0.117,22.796
		l-9.762,0.299c-1,0.032-1.791,0.681-1.778,1.463l0.179,10.519c0.014,0.79,0.842,1.415,1.852,1.401l68.059-0.975
		c0.489-0.007,0.954-0.166,1.294-0.441c0.34-0.274,0.529-0.642,0.522-1.022l-0.198-11.627
		C172.591,65.125,172.388,64.761,172.031,64.497 M127.371,42.955l16.011-1.337l0.736,23.306l-16.378,0.501
		C127.266,60.097,127.063,52.331,127.371,42.955"/>
	<path clip-path="url(#SVGID_2_)" fill="#FFFFFF" d="M162.23,95.999c-0.354-0.264-0.833-0.402-1.322-0.387l-19.293,0.668
		l0.212-12.647c-0.006-0.382-0.162-0.744-0.437-1.009c-0.272-0.266-0.64-0.41-1.021-0.404l-11.626,0.198
		c-0.385,0.007-0.75,0.167-1.016,0.446c-0.265,0.278-0.404,0.652-0.393,1.034l0.494,12.862l-19.202,0.666
		c-1.001,0.031-1.792,0.68-1.778,1.463l0.181,10.518c0.013,0.79,0.842,1.416,1.851,1.402l52.298-0.707
		c0.489-0.007,0.953-0.165,1.294-0.44c0.34-0.274,0.529-0.642,0.522-1.022l-0.199-11.627
		C162.79,96.628,162.586,96.263,162.23,95.999"/>
	<polygon clip-path="url(#SVGID_2_)" fill-rule="evenodd" clip-rule="evenodd" fill="#FFFFFF" points="174.412,29.323 
		175.736,29.323 175.736,32.768 176.267,32.768 176.267,29.323 177.591,29.323 177.591,28.853 174.412,28.853 	"/>
	<path clip-path="url(#SVGID_2_)" fill-rule="evenodd" clip-rule="evenodd" fill="#FFFFFF" d="M181.813,32.767v-3.915h-0.754
		l-1.111,3.31h-0.011l-1.114-3.31h-0.76v3.915h0.512v-2.313c0-0.113-0.014-0.609-0.014-0.968h0.014l1.103,3.281h0.522l1.101-3.286
		h0.012c0,0.364-0.012,0.86-0.012,0.973v2.313H181.813z"/>
	<path clip-path="url(#SVGID_2_)" fill="#FFFFFF" d="M176.62,26.948c1.013-6.769,6.925-7.469,6.925-7.469
		c-6.846-0.855-8.481-7.856-8.481-7.856c-0.698,7.702-7.078,7.933-7.078,7.933C173.742,20.258,176.62,26.948,176.62,26.948"/>
	<path clip-path="url(#SVGID_2_)" fill="#FFFFFF" d="M193.115,5.476c-2.524,9.631-10.347,9.102-10.347,9.102
		c7.61,1.096,9.41,10.502,9.41,10.502c2.102-8.553,10.116-9.101,10.116-9.101C193.501,14.111,193.115,5.476,193.115,5.476"/>
	<path clip-path="url(#SVGID_2_)" fill="#FFFFFF" d="M187.668,25.314c0,0-0.39,3.967-3.267,4.901c0,0,2.643-0.077,4.122,4.123
		c0,0,0.546-4.045,3.501-4.2C192.024,30.138,188.834,28.97,187.668,25.314"/>
	<path clip-path="url(#SVGID_2_)" fill="#3961A5" d="M207.251,15.065c0-8.32-6.744-15.065-15.063-15.065
		c-5.307,0-9.963,2.751-12.648,6.897c-1.5-0.649-3.151-1.013-4.891-1.013c-5.998,0-10.993,4.282-12.105,9.953l-0.657,0.056
		c-0.029-0.028-0.059-0.057-0.087-0.086c-1.609-1.559-3.704-2.395-5.973-2.361l-11.622,0.198c-2.231,0.036-4.395,0.986-5.926,2.598
		c-0.504,0.528-0.932,1.12-1.278,1.755l-3.964,0.335c-0.441-1.193-1.152-2.284-2.089-3.171c-1.646-1.561-3.88-2.395-6.147-2.286
		l-12.55,0.583c-3.214,0.152-5.937,2.086-7.209,4.846l-9.585,0.365c-0.04,0.001-0.08,0.003-0.119,0.005
		c-0.649,0.036-1.274,0.152-1.874,0.325c-0.093-0.104-0.182-0.212-0.28-0.311c-1.544-1.547-3.682-2.434-5.867-2.434h-0.009
		L74.668,16.27c-1.189,0.003-5.725-0.052-7.002-0.052c-0.071-0.001-0.103,0.001-0.154,0.002l-32.191,0.708
		c-0.424-0.991-1.041-1.902-1.825-2.671c-1.604-1.565-3.792-2.418-6.049-2.354l-11.842,0.364c-2.993,0.097-5.581,1.757-6.962,4.21
		L7.795,16.54C3.405,16.799-0.005,20.409,0,24.827L0.006,29.4C0.005,29.445,0,29.488,0,29.533l0.013,9.929
		C0.02,41.69,0.94,43.856,2.567,45.43c1.222,1.169,2.782,1.934,4.427,2.2C6.941,57.835,7.49,75.741,11.709,82.399
		c3.362,5.304,9.935,7.883,20.095,7.883h0.079c1.245-0.002,5.764-0.163,11.215-0.384c0.003,0.559,0.011,1.123,0.028,1.692
		c-0.073,3.549-0.074,7.462,0.671,11.381c0.368,1.935,0.945,3.813,1.714,5.583c4.791,11.039,16.704,11.305,21.636,11.305h0.375
		c4.686-0.006,25.084-2.48,36-3.849c1.479,1.086,3.322,1.737,5.319,1.737h0.134l52.307-0.706c2.037-0.031,4.011-0.736,5.538-1.972
		c2.022-1.623,3.157-4.01,3.115-6.551l-0.063-3.615c0.043-0.36,0.068-0.724,0.063-1.09l-0.2-11.623
		c-0.043-2.556-1.269-4.915-3.368-6.472c-0.054-0.04-0.11-0.073-0.165-0.111l4.881-0.07c2.033-0.031,4.003-0.733,5.548-1.978
		c2.02-1.629,3.151-4.019,3.104-6.544l-0.061-3.608c0.042-0.363,0.067-0.728,0.061-1.097l-0.198-11.622
		c-0.042-2.559-1.271-4.919-3.375-6.477c-1.605-1.19-3.626-1.803-5.666-1.747l-5.927,0.182l-0.043-5.83l6.585-0.55
		c2.178-0.136,4.245-1.13,5.706-2.753c0.504-0.56,0.918-1.189,1.252-1.856h9.207c0.16,0.007,0.315,0.024,0.476,0.024
		c6.491,0,11.753-5.262,11.753-11.753c0-0.552-0.052-1.093-0.126-1.626C204.068,25.752,207.251,20.78,207.251,15.065"/>
	<path clip-path="url(#SVGID_2_)" fill="#FFFFFF" d="M68.128,80.415c-0.096-1.901-0.09-8.906-0.379-10.299
		c-0.123-0.595-0.465-0.871-0.913-0.986c-0.705-0.181-1.671,0.041-2.455,0.061c-1.611,0.043-3.323,0.097-4.873,0.147
		c-2.854,0.093-5.708,0.178-8.563,0.232c-5.766,0.112-11.514-0.005-17.263-0.015c-1.176-0.002-2.557,0.192-3.352-0.95
		c-0.641-0.921-0.639-2.282-0.788-3.353c-0.237-1.692-0.366-3.4-0.46-5.108c0.216,0.193,0.499,0.313,0.811,0.306l37.378,0.168
		c0.313-0.007,0.611-0.138,0.828-0.365c0.216-0.228,0.334-0.531,0.326-0.845l-0.245-9.586c-0.008-0.317-0.143-0.617-0.374-0.834
		c-0.232-0.216-0.54-0.33-0.857-0.316l-37.353,0.745c-0.281,0.013-0.524,0.134-0.72,0.306c0.035-3.089,0.142-6.177,0.291-9.259
		l39.07-0.848c0.37-0.005,0.72-0.16,0.971-0.43c0.251-0.271,0.381-0.631,0.359-1l-0.535-9.049c-0.043-0.715-0.635-1.273-1.367-1.272
		l-38.432,0.846l-0.179-3.802c0.004-0.367-0.143-0.721-0.405-0.978c-0.263-0.256-0.62-0.396-0.987-0.385l-11.836,0.365
		c-0.691,0.022-1.256,0.563-1.304,1.253l-0.621,2.589l-5.664,0.42c-0.725,0.029-1.297,0.625-1.297,1.35l0.014,9.923
		c0,0.366,0.15,0.716,0.413,0.971c0.264,0.254,0.615,0.391,0.986,0.377l5.732-0.196c-0.349,6.957-0.428,31.907,3.485,38.086
		c1.966,3.1,6.778,4.668,14.302,4.657c5.701-0.008,34.925-1.489,35.142-1.528C67.687,81.695,68.163,81.096,68.128,80.415"/>
	<path clip-path="url(#SVGID_2_)" fill="#FFFFFF" d="M87.264,98.245c-0.345-0.261-0.814-0.44-1.456-0.52
		c-1.805-0.22-9.815,1.171-12.112,1.307c-2.68,0.157-5.828,0.764-8.086-1.076c-0.747-0.609-1.187-1.466-1.395-2.396
		c-0.237-1.058-0.41-2.086-0.541-3.185c-0.109-0.917-0.138-1.82-0.098-2.73c0.033-0.77-0.242-1.601-0.9-2.052
		c-0.56-0.384-1.457-0.204-2.092-0.176c-0.954,0.044-1.907,0.097-2.859,0.155c-1.906,0.117-3.811,0.259-5.715,0.402
		c-1.054,0.079-1.882,0.956-1.906,2.012c-0.088,3.874-0.217,7.859,0.511,11.685c0.27,1.422,0.687,2.795,1.263,4.122
		c2.735,6.302,9.492,7.135,15.634,7.126c5.701-0.008,19.785-1.938,20.003-1.978c0.672-0.117,1.148-0.718,1.114-1.397
		c-0.128-2.478-0.152-4.957-0.314-7.433C88.212,100.549,88.313,99.034,87.264,98.245"/>
	<path clip-path="url(#SVGID_2_)" fill="#FFFFFF" d="M87.314,27.902l-12.629,0.015c-0.362,0.001-0.71,0.146-0.963,0.405
		c-0.254,0.259-0.392,0.608-0.386,0.971l0.941,50.128c0.015,0.737,0.615,1.326,1.352,1.325l11.584-0.014
		c0.745-0.001,1.347-0.604,1.349-1.348l0.105-50.129c0-0.36-0.142-0.704-0.397-0.957C88.017,28.044,87.672,27.901,87.314,27.902"/>
	<path clip-path="url(#SVGID_2_)" fill="#FFFFFF" d="M172.031,64.497c-0.354-0.263-0.833-0.402-1.322-0.388l-13.027,0.4
		l-0.178-24.07l13.135-1.096c0.39-0.011,0.759-0.182,1.021-0.473c0.263-0.291,0.395-0.676,0.364-1.065l-0.717-9.587
		c-0.058-0.758-0.695-1.338-1.453-1.325h-0.018l-12.425,1.049l-0.011-1.438c-0.005-0.381-0.161-0.744-0.435-1.009
		s-0.641-0.41-1.021-0.403l-11.626,0.198c-0.385,0.006-0.751,0.167-1.014,0.445c-0.266,0.279-0.407,0.652-0.394,1.035l0.075,2.392
		l-15.739,1.329l-0.627-4.556c-0.002-0.389-0.163-0.761-0.445-1.03c-0.282-0.267-0.662-0.41-1.053-0.391l-12.544,0.583
		c-0.732,0.034-1.32,0.617-1.361,1.35l-0.241,3.283l-15.255,0.58c-0.77,0.042-1.367,0.685-1.354,1.455l0.18,10.519
		c0.007,0.389,0.171,0.758,0.454,1.023c0.284,0.264,0.659,0.404,1.051,0.383l16.261-0.593c-0.137,4.01-0.376,13.721,0.117,22.796
		l-9.762,0.299c-1,0.032-1.791,0.681-1.778,1.463l0.179,10.519c0.014,0.79,0.842,1.415,1.852,1.401l68.059-0.975
		c0.489-0.007,0.954-0.166,1.294-0.441c0.34-0.274,0.529-0.642,0.522-1.022l-0.198-11.627
		C172.591,65.125,172.388,64.761,172.031,64.497 M127.371,42.955l16.011-1.337l0.736,23.306l-16.378,0.501
		C127.266,60.097,127.063,52.331,127.371,42.955"/>
	<path clip-path="url(#SVGID_2_)" fill="#FFFFFF" d="M162.23,95.999c-0.354-0.264-0.833-0.402-1.322-0.387l-19.293,0.668
		l0.212-12.647c-0.006-0.382-0.162-0.744-0.437-1.009c-0.272-0.266-0.64-0.41-1.021-0.404l-11.626,0.198
		c-0.385,0.007-0.75,0.167-1.016,0.446c-0.265,0.278-0.404,0.652-0.393,1.034l0.494,12.862l-19.202,0.666
		c-1.001,0.031-1.792,0.68-1.778,1.463l0.181,10.518c0.013,0.79,0.842,1.416,1.851,1.402l52.298-0.707
		c0.489-0.007,0.953-0.165,1.294-0.44c0.34-0.274,0.529-0.642,0.522-1.022l-0.199-11.627
		C162.79,96.628,162.586,96.263,162.23,95.999"/>
	<polygon clip-path="url(#SVGID_2_)" fill-rule="evenodd" clip-rule="evenodd" fill="#FFFFFF" points="174.412,29.323 
		175.736,29.323 175.736,32.768 176.267,32.768 176.267,29.323 177.591,29.323 177.591,28.853 174.412,28.853 	"/>
	<path clip-path="url(#SVGID_2_)" fill-rule="evenodd" clip-rule="evenodd" fill="#FFFFFF" d="M181.813,32.767v-3.915h-0.754
		l-1.111,3.31h-0.011l-1.114-3.31h-0.76v3.915h0.512v-2.313c0-0.113-0.014-0.609-0.014-0.968h0.014l1.103,3.281h0.522l1.101-3.286
		h0.012c0,0.364-0.012,0.86-0.012,0.973v2.313H181.813z"/>
	<path clip-path="url(#SVGID_2_)" fill="#FFFFFF" d="M176.62,26.948c1.013-6.769,6.925-7.469,6.925-7.469
		c-6.846-0.855-8.481-7.856-8.481-7.856c-0.698,7.702-7.078,7.933-7.078,7.933C173.742,20.258,176.62,26.948,176.62,26.948"/>
	<path clip-path="url(#SVGID_2_)" fill="#FFFFFF" d="M193.115,5.476c-2.524,9.631-10.347,9.102-10.347,9.102
		c7.61,1.096,9.41,10.502,9.41,10.502c2.102-8.553,10.116-9.101,10.116-9.101C193.501,14.111,193.115,5.476,193.115,5.476"/>
	<path clip-path="url(#SVGID_2_)" fill="#FFFFFF" d="M187.668,25.314c0,0-0.39,3.967-3.267,4.901c0,0,2.643-0.077,4.122,4.123
		c0,0,0.546-4.045,3.501-4.2C192.024,30.138,188.834,28.97,187.668,25.314"/>
	<path clip-path="url(#SVGID_2_)" fill="#7D0000" d="M133.352,129.937c-11.465-1.672-22.098,1.761-29.176,9.415
		c-0.134,0.145-0.257,0.295-0.369,0.45c-2.04,2.283-3.668,4.849-4.863,7.637c-1.748,0.191-3.566,0.388-5.414,0.565l2.587-2.374
		c0.098-0.077,0.195-0.158,0.29-0.245l2.775-2.403c0.899-0.824,1.371-2.729,1.462-3.933c0.02-0.251,0.02-0.504,0-0.758
		c-0.114-1.442-0.925-3.894-2.122-4.709c-9.549-6.49-21.404-8.601-32.306-6.828c-5.694,0.928-11.056,2.864-15.308,6.87
		c-4.083,3.846-7.16,11.372-8.367,16.891c-1.189,5.441-0.91,11.426,1.033,16.665c3.232,8.724,10.918,15.621,20.056,18.004
		c3.362,0.877,7.012,1.207,10.85,0.979c1.675-0.099,3.429-0.34,5.247-0.719c0.849,0.76,1.966,1.217,3.179,1.217
		c0.094,0,0.19-0.003,0.286-0.009l13.369-0.791c1.265-0.075,2.446-0.649,3.287-1.596c0.841-0.946,1.271-2.188,1.196-3.451
		l-0.459-7.745c4.754,8.522,13.242,14.718,22.614,16.084c2.216,0.323,4.384,0.479,6.489,0.479c12.653,0,23.026-5.715,27.871-15.698
		c0.091-0.184,0.181-0.367,0.271-0.566c0.07-0.151,0.137-0.302,0.203-0.454c1.019-2.32,1.729-4.821,2.109-7.434
		C163.077,145.357,148.529,132.148,133.352,129.937"/>
	<path clip-path="url(#SVGID_2_)" fill="#D92128" d="M133.352,125.519c-11.465-1.672-22.098,1.761-29.176,9.415
		c-0.134,0.145-0.257,0.295-0.369,0.45c-2.04,2.283-3.668,4.85-4.863,7.637c-1.748,0.191-3.566,0.388-5.414,0.565l2.587-2.373
		c0.098-0.078,0.195-0.16,0.29-0.246l1.51-1.386c0.899-0.825,1.443-1.957,1.534-3.16c0.02-0.251,0.02-0.504,0-0.757
		c-0.115-1.444-0.877-2.757-2.075-3.571c-10.338-7.026-18.75-8.094-28.2-7.535c-0.057,0.003-0.115,0.008-0.172,0.014
		c-7.593,0.724-14.46,3.996-19.863,9.462l-0.207,0.193c-0.186,0.173-0.36,0.354-0.532,0.542l-0.114,0.121
		c-0.1,0.101-0.198,0.201-0.296,0.309c-0.458,0.494-0.894,1.016-1.296,1.553c-0.014,0.019-0.027,0.035-0.039,0.052
		c-5.827,7.829-5.683,18.945-3.083,25.96c3.232,8.723,10.918,15.62,20.056,18.004c3.362,0.876,7.012,1.206,10.85,0.978
		c1.675-0.099,3.429-0.34,5.247-0.718c0.849,0.759,1.966,1.216,3.179,1.216c0.094,0,0.19-0.003,0.286-0.008l13.369-0.792
		c1.265-0.075,2.446-0.649,3.287-1.595c0.841-0.946,1.271-2.188,1.196-3.452l-0.459-7.744c4.754,8.521,13.242,14.717,22.614,16.083
		c2.216,0.323,4.384,0.48,6.489,0.48c12.653,0,23.026-5.716,27.871-15.699c0.091-0.184,0.181-0.366,0.271-0.566
		c0.07-0.15,0.137-0.302,0.203-0.453c1.019-2.321,1.729-4.821,2.109-7.435C163.077,140.939,148.529,127.73,133.352,125.519"/>
	<path clip-path="url(#SVGID_2_)" fill="#FFFFFF" d="M103.125,147.359c-4.915,0.542-10.619,1.215-16.252,1.549
		c-5.734,0.339-11.882,0.536-15.921,0.522c-0.059,4.11-0.151,5.977-0.195,10.337c2.339,0.28,7.393,0.401,11.116,0.181l0.122,2.069
		c-2.038,1.38-4.413,2.19-7.13,2.352c-8.049,0.476-12.873-4.268-13.249-10.614c-0.331-5.595,4.243-11.899,11.488-12.33
		c4.125-0.244,7.85,1.296,11.535,3.843l10.054-9.227c-8.731-5.936-15.676-7.285-25.234-6.719c-6.928,0.662-12.7,3.769-16.985,8.13
		l-0.287,0.268c-5.881,5.494-6.803,16.19-4.137,23.383c2.713,7.32,9.268,13.086,16.785,15.045c3.049,0.795,6.226,1.018,9.364,0.832
		c2.716-0.161,5.609-0.752,8.582-1.683l0.129,2.171l13.37-0.791l-1.026-17.332c2.711-0.244,6.461-0.633,10.029-1.767
		C104.012,151.452,103.319,148.939,103.125,147.359"/>
	<rect x="124.553" y="166.404" clip-path="url(#SVGID_2_)" fill="#FFDD00" width="8.899" height="1.249"/>
	<path clip-path="url(#SVGID_2_)" fill="#FFDD00" d="M132.628,130.32c-13.687-1.995-25.185,4.514-29.447,14.923l1.463,0.023
		c0,0,1.791-0.358,1.899,2.165l2.03,10.462c0,0,0.43,1.847-1.577,2.391c0,0-2.566,0.806-4.42,1.012
		c3,9.498,11.552,17.293,21.311,18.714c15.82,2.306,29.359-4.881,31.497-19.559C157.856,143.489,145.674,132.221,132.628,130.32
		 M134.729,168.325c0,1.976-1.598,3.584-3.562,3.584h-4.329c-1.963,0-3.563-1.608-3.563-3.584v-4.203
		c-3.249-1.963-5.251-5.504-5.251-9.331c0-6.001,4.853-10.882,10.814-10.882c5.963,0,10.813,4.881,10.813,10.882
		c0,3.723-1.834,7.107-4.923,9.126L134.729,168.325z M147.315,159.697c-0.053,0.317-0.34,0.542-0.658,0.513l-2.374-0.212
		c-0.188,0.671-0.424,1.325-0.695,1.963l1.972,1.346c0.266,0.182,0.348,0.536,0.188,0.817l-0.977,1.72
		c-0.158,0.28-0.505,0.391-0.795,0.252l-2.146-1.019c-0.397,0.55-0.825,1.078-1.29,1.577l1.376,1.936
		c0.187,0.261,0.143,0.624-0.103,0.832l-1.503,1.279c-0.244,0.208-0.606,0.19-0.832-0.038l-3.302-3.423l1.736-1.542
		c2.835-2.579,4.457-6.229,4.457-10.083c0-7.493-6.061-13.589-13.506-13.589c-7.448,0-13.508,6.096-13.508,13.589
		c0,4.162,1.857,8.038,5.098,10.635l1.221,0.988l-3.363,3.425c-0.225,0.229-0.588,0.246-0.833,0.038l-1.502-1.279
		c-0.245-0.208-0.289-0.571-0.101-0.832l1.34-1.911c-0.47-0.501-0.908-1.025-1.308-1.577l-2.094,0.994
		c-0.29,0.139-0.637,0.028-0.796-0.252l-0.975-1.72c-0.159-0.281-0.077-0.636,0.188-0.817l1.916-1.307
		c-0.277-0.649-0.515-1.314-0.705-1.996l-2.308,0.206c-0.319,0.029-0.605-0.195-0.66-0.513l-0.325-1.953
		c-0.053-0.318,0.146-0.623,0.457-0.701l2.259-0.565c-0.016-0.287-0.024-0.573-0.024-0.862c0-0.406,0.021-0.81,0.049-1.207
		l-2.254-0.607c-0.309-0.084-0.504-0.394-0.444-0.71l0.359-1.948c0.059-0.315,0.35-0.534,0.668-0.5l2.325,0.25
		c0.177-0.581,0.387-1.145,0.625-1.694l-1.942-1.324c-0.265-0.182-0.347-0.537-0.188-0.818l0.974-1.719
		c0.159-0.281,0.506-0.391,0.795-0.254l2.136,1.013c0.403-0.552,0.842-1.078,1.311-1.574l-1.385-1.932
		c-0.189-0.262-0.146-0.624,0.1-0.833l1.502-1.28c0.245-0.208,0.608-0.191,0.833,0.037l1.669,1.698
		c0.573-0.387,1.173-0.735,1.795-1.045l-0.64-2.304c-0.086-0.312,0.08-0.637,0.38-0.746l1.849-0.681
		c0.303-0.109,0.637,0.031,0.771,0.324l0.988,2.185c0.651-0.159,1.318-0.277,2-0.353l0.184-2.396c0.026-0.321,0.102-0.57,0.422-0.57
		h2.158c0.322,0,0.587,0.249,0.613,0.57l0.185,2.403c0.678,0.077,1.343,0.198,1.992,0.357l0.997-2.197
		c0.131-0.293,0.467-0.434,0.768-0.324l1.849,0.681c0.302,0.109,0.468,0.435,0.381,0.746l-0.648,2.333
		c0.615,0.31,1.21,0.655,1.778,1.041l1.694-1.724c0.225-0.229,0.588-0.245,0.832-0.037l1.503,1.28
		c0.244,0.209,0.288,0.571,0.1,0.833l-1.413,1.971c0.461,0.491,0.893,1.012,1.29,1.559l2.183-1.036
		c0.29-0.137,0.638-0.027,0.795,0.254l0.977,1.719c0.158,0.281,0.076,0.637-0.19,0.818l-1.989,1.356
		c0.231,0.541,0.437,1.099,0.611,1.668l2.388-0.256c0.316-0.034,0.607,0.185,0.668,0.5l0.358,1.948
		c0.061,0.316-0.135,0.626-0.443,0.71l-2.318,0.624c0.029,0.394,0.048,0.79,0.048,1.19c0,0.282-0.008,0.565-0.021,0.848l2.319,0.58
		c0.313,0.078,0.511,0.383,0.458,0.701L147.315,159.697z"/>
	<path clip-path="url(#SVGID_2_)" fill="#FFDD00" d="M128.839,145.193c-5.259,0-9.536,4.304-9.536,9.597
		c0,3.487,1.886,6.706,4.921,8.4l0.329,0.182v1.698h8.899v-1.872l0.309-0.187c2.891-1.756,4.615-4.829,4.615-8.222
		C138.376,149.497,134.099,145.193,128.839,145.193 M129.023,163.988c-0.858,0-1.553-0.699-1.553-1.561
		c0-0.862,0.694-1.563,1.553-1.563c0.855,0,1.551,0.7,1.551,1.563C130.574,163.289,129.879,163.988,129.023,163.988 M130.63,157.673
		c-0.044,0.85-0.74,1.516-1.587,1.516c-0.846,0-1.543-0.666-1.587-1.516l-0.472-9.039c-0.047-0.915,0.677-1.685,1.587-1.685h0.944
		c0.91,0,1.635,0.77,1.587,1.685L130.63,157.673z"/>
	<path clip-path="url(#SVGID_2_)" fill="#FFDD00" d="M126.838,170.625h4.328c1.032,0,1.905-0.692,2.189-1.64h-8.705
		C124.935,169.933,125.807,170.625,126.838,170.625"/>
	<path clip-path="url(#SVGID_2_)" fill="#BD8F10" d="M132.663,130.242c-10.271-1.497-19.309,1.796-24.981,7.932
		c5.703-5.223,14.112-7.906,23.567-6.528c13.048,1.902,25.229,13.17,22.758,30.132c-0.71,4.875-2.686,8.92-5.576,12.068
		c3.665-3.313,6.17-7.839,6.991-13.473C157.893,143.412,145.712,132.143,132.663,130.242"/>
	<path clip-path="url(#SVGID_2_)" fill="#BCBEC0" d="M51.266,139.063c4.284-4.36,10.058-7.469,16.984-8.131
		c9.446-0.559,16.342,0.761,24.929,6.52l1.512-1.388c-8.732-5.937-15.677-7.284-25.235-6.72c-6.927,0.662-12.7,3.771-16.985,8.13
		l-0.287,0.269c-0.829,0.773-1.556,1.655-2.191,2.612c0.312-0.357,0.639-0.701,0.986-1.024L51.266,139.063z"/>
	<path clip-path="url(#SVGID_2_)" fill="#BCBEC0" d="M101.917,148.969c0.182,1.477,0.797,3.767,1.912,9.049
		c0.485-0.127,0.971-0.265,1.451-0.417c-1.271-6.126-1.963-8.64-2.157-10.22c-4.915,0.543-10.618,1.216-16.252,1.549
		c-5.734,0.34-11.882,0.537-15.921,0.523c-0.008,0.568-0.016,1.09-0.026,1.585c4-0.022,9.538-0.213,14.742-0.521
		C91.299,150.185,97.002,149.512,101.917,148.969"/>
	<path clip-path="url(#SVGID_2_)" fill="#BD8F10" d="M143.567,161.958l1.98,1.353c0.267,0.181,0.349,0.539,0.188,0.821l-0.608,1.076
		c0.079-0.054,0.149-0.116,0.201-0.204l0.979-1.729c0.16-0.281,0.077-0.639-0.188-0.819l-1.981-1.353
		c0.153-0.359,0.289-0.723,0.417-1.091l-0.29-0.026C144.077,160.659,143.841,161.316,143.567,161.958"/>
	<path clip-path="url(#SVGID_2_)" fill="#BD8F10" d="M134.387,137.443l1.856,0.683c0.304,0.11,0.47,0.438,0.383,0.75l-0.651,2.342
		c0.619,0.313,1.218,0.661,1.787,1.047l1.701-1.729c0.228-0.232,0.591-0.247,0.837-0.038l1.511,1.285
		c0.195,0.168,0.258,0.432,0.181,0.666l0.491-0.687c0.188-0.262,0.145-0.627-0.102-0.836l-1.51-1.286
		c-0.246-0.209-0.61-0.191-0.837,0.038l-1.702,1.731c-0.569-0.387-1.168-0.735-1.786-1.046l0.652-2.345
		c0.086-0.312-0.081-0.639-0.383-0.75l-1.858-0.682c-0.301-0.111-0.638,0.031-0.771,0.325l-0.245,0.541
		C134.078,137.395,134.237,137.388,134.387,137.443"/>
	<path clip-path="url(#SVGID_2_)" fill="#BD8F10" d="M130.444,137.221l0.188,2.415c0.681,0.076,1.349,0.197,2.001,0.357l0.405-0.891
		c-0.602-0.142-1.211-0.252-1.835-0.323l-0.188-2.415c-0.025-0.324-0.293-0.573-0.615-0.573h-2.168
		c-0.321,0-0.397,0.249-0.424,0.573l-0.021,0.284h2.044C130.152,136.648,130.421,136.897,130.444,137.221"/>
	<path clip-path="url(#SVGID_2_)" fill="#BD8F10" d="M144.17,150.896l2.398-0.258c0.32-0.034,0.613,0.185,0.672,0.502l0.342,1.854
		l0.145-0.039c0.31-0.084,0.506-0.396,0.445-0.713l-0.36-1.957c-0.061-0.319-0.353-0.537-0.671-0.502l-2.399,0.257
		c-0.135-0.446-0.296-0.88-0.467-1.309l-0.718,0.488C143.789,149.763,143.996,150.322,144.17,150.896"/>
	<path clip-path="url(#SVGID_2_)" fill="#BD8F10" d="M147.754,156.195l-2.332-0.583c0.017-0.282,0.023-0.566,0.023-0.852
		c0-0.169-0.014-0.335-0.02-0.502l-0.6,0.162c0.029,0.395,0.048,0.794,0.048,1.197c0,0.284-0.008,0.566-0.021,0.85l2.332,0.583
		c0.312,0.079,0.511,0.385,0.459,0.706l-0.269,1.605c0.255-0.042,0.468-0.232,0.513-0.5l0.326-1.962
		C148.268,156.58,148.067,156.273,147.754,156.195"/>
	<path clip-path="url(#SVGID_2_)" fill="#BD8F10" d="M141.793,146.14l2.193-1.04c0.291-0.139,0.639-0.027,0.799,0.254l0.98,1.728
		c0.032,0.059,0.049,0.12,0.061,0.184l0.32-0.219c0.266-0.182,0.348-0.539,0.188-0.82l-0.979-1.729
		c-0.16-0.281-0.507-0.391-0.799-0.253l-2.194,1.04c-0.391-0.54-0.816-1.052-1.271-1.539l-0.596,0.83
		C140.96,145.068,141.395,145.59,141.793,146.14"/>
	<path clip-path="url(#SVGID_2_)" fill="#BD8F10" d="M113.797,145.125l2.146,1.018c0.405-0.555,0.845-1.082,1.316-1.581
		l-0.084-0.119c-0.23,0.275-0.451,0.556-0.661,0.843l-2.146-1.017c-0.291-0.138-0.638-0.028-0.799,0.253l-0.369,0.652
		C113.374,145.06,113.599,145.029,113.797,145.125"/>
	<path clip-path="url(#SVGID_2_)" fill="#BD8F10" d="M118.313,140.535l1.679,1.705c0.575-0.39,1.177-0.738,1.802-1.051l-0.132-0.477
		c-0.375,0.211-0.744,0.43-1.101,0.671l-1.677-1.705c-0.226-0.23-0.591-0.248-0.837-0.039l-1.508,1.287
		c-0.163,0.138-0.229,0.344-0.205,0.544l1.143-0.974C117.724,140.288,118.088,140.304,118.313,140.535"/>
	<path clip-path="url(#SVGID_2_)" fill="#BD8F10" d="M124.106,137.769l0.993,2.192c0.656-0.159,1.326-0.277,2.009-0.353l0.062-0.783
		c-0.506,0.072-1.008,0.161-1.5,0.281l-0.992-2.194c-0.134-0.294-0.469-0.436-0.772-0.326l-1.857,0.684
		c-0.303,0.109-0.469,0.437-0.382,0.75l0.008,0.033l1.661-0.609C123.637,137.332,123.973,137.474,124.106,137.769"/>
	<path clip-path="url(#SVGID_2_)" fill="#BD8F10" d="M141.926,168.618c0.063,0.089,0.092,0.188,0.104,0.291l0.366-0.313
		c0.246-0.208,0.29-0.573,0.101-0.835l-1.303-1.833c-0.208,0.253-0.424,0.502-0.65,0.745L141.926,168.618z"/>
	<path clip-path="url(#SVGID_2_)" fill="#BD8F10" d="M114.044,161.685l-1.209,0.824c-0.212,0.146-0.301,0.399-0.252,0.64
		l1.605-1.097C114.137,161.932,114.094,161.807,114.044,161.685"/>
	<path clip-path="url(#SVGID_2_)" fill="#BD8F10" d="M112.88,155.796l-1.678,0.42c-0.312,0.079-0.512,0.385-0.46,0.705l0.021,0.117
		l2.137-0.533C112.889,156.27,112.883,156.032,112.88,155.796"/>
	<path clip-path="url(#SVGID_2_)" fill="#BD8F10" d="M113.582,150.894c0.092-0.301,0.191-0.595,0.301-0.887l-2.065-0.221
		c-0.32-0.036-0.612,0.185-0.672,0.503l-0.067,0.367c0.056-0.009,0.11-0.021,0.168-0.014L113.582,150.894z"/>
	<path clip-path="url(#SVGID_2_)" fill="#FFFFFF" d="M129.515,146.942h-0.942c-0.911,0-1.636,0.768-1.587,1.683l0.471,9.04
		c0.044,0.848,0.742,1.514,1.587,1.514c0.846,0,1.543-0.666,1.587-1.514l0.472-9.04C131.15,147.71,130.425,146.942,129.515,146.942"
		/>
	<path clip-path="url(#SVGID_2_)" fill="#FFFFFF" d="M129.022,160.857c-0.856,0-1.553,0.698-1.553,1.562s0.696,1.563,1.553,1.563
		s1.553-0.699,1.553-1.563S129.879,160.857,129.022,160.857"/>
	<path clip-path="url(#SVGID_2_)" fill="#FFFFFF" d="M147.184,157.035l-2.319-0.58c0.014-0.282,0.021-0.565,0.021-0.849
		c0-0.4-0.019-0.797-0.048-1.19l2.318-0.623c0.309-0.084,0.504-0.395,0.443-0.71l-0.358-1.947c-0.061-0.318-0.352-0.536-0.668-0.5
		l-2.388,0.255c-0.175-0.569-0.38-1.127-0.611-1.668l1.99-1.356c0.266-0.183,0.348-0.537,0.188-0.817l-0.975-1.721
		c-0.159-0.28-0.505-0.391-0.795-0.253l-2.184,1.035c-0.396-0.547-0.829-1.065-1.29-1.558l1.413-1.972
		c0.189-0.262,0.146-0.624-0.1-0.832l-1.502-1.28c-0.245-0.208-0.608-0.192-0.833,0.038l-1.695,1.721
		c-0.566-0.383-1.162-0.729-1.777-1.041l0.647-2.332c0.087-0.311-0.079-0.636-0.38-0.746l-1.849-0.679
		c-0.301-0.111-0.637,0.03-0.769,0.324l-0.996,2.196c-0.648-0.16-1.313-0.28-1.992-0.357l-0.185-2.405
		c-0.026-0.32-0.291-0.568-0.613-0.568h-2.158c-0.319,0-0.396,0.248-0.422,0.568l-0.184,2.396c-0.682,0.075-1.349,0.193-2,0.352
		l-0.989-2.182c-0.133-0.294-0.467-0.436-0.769-0.324l-1.85,0.679c-0.301,0.11-0.467,0.436-0.381,0.746l0.641,2.305
		c-0.621,0.311-1.222,0.657-1.795,1.045l-1.669-1.697c-0.225-0.23-0.588-0.246-0.833-0.038l-1.502,1.28
		c-0.245,0.208-0.289,0.57-0.1,0.832l1.385,1.933c-0.469,0.497-0.907,1.022-1.31,1.575l-2.137-1.014
		c-0.289-0.138-0.636-0.027-0.795,0.253l-0.975,1.721c-0.158,0.28-0.076,0.635,0.188,0.817l1.942,1.322
		c-0.238,0.552-0.448,1.116-0.625,1.696l-2.325-0.249c-0.317-0.036-0.608,0.182-0.668,0.5l-0.358,1.947
		c-0.061,0.315,0.135,0.626,0.443,0.71l2.254,0.605c-0.027,0.4-0.049,0.802-0.049,1.208c0,0.289,0.009,0.576,0.024,0.863
		l-2.258,0.565c-0.312,0.078-0.511,0.383-0.457,0.7l0.324,1.953c0.055,0.318,0.342,0.541,0.66,0.514l2.309-0.206
		c0.189,0.682,0.427,1.348,0.705,1.995l-1.916,1.309c-0.266,0.179-0.348,0.536-0.188,0.816l0.975,1.72
		c0.159,0.28,0.507,0.39,0.797,0.252l2.093-0.994c0.399,0.551,0.838,1.077,1.308,1.578l-1.341,1.91
		c-0.187,0.261-0.143,0.624,0.102,0.832l1.503,1.277c0.244,0.208,0.607,0.192,0.833-0.036l3.362-3.426l-1.221-0.988
		c-3.24-2.597-5.097-6.474-5.097-10.635c0-7.492,6.058-13.59,13.507-13.59c7.445,0,13.506,6.098,13.506,13.59
		c0,3.856-1.623,7.504-4.458,10.082l-1.735,1.542l3.303,3.425c0.225,0.229,0.588,0.244,0.831,0.036l1.504-1.277
		c0.244-0.208,0.288-0.571,0.101-0.832l-1.376-1.937c0.466-0.5,0.894-1.026,1.29-1.578l2.146,1.021
		c0.289,0.138,0.637,0.028,0.796-0.252l0.975-1.72c0.16-0.28,0.078-0.638-0.188-0.816l-1.972-1.347
		c0.272-0.639,0.507-1.292,0.695-1.963l2.374,0.212c0.318,0.027,0.605-0.195,0.659-0.514l0.325-1.953
		C147.695,157.418,147.496,157.113,147.184,157.035"/>
	<path clip-path="url(#SVGID_2_)" fill="#FFFFFF" d="M139.653,154.781c0-6-4.852-10.881-10.814-10.881s-10.813,4.881-10.813,10.881
		c0,3.827,2.002,7.369,5.251,9.332v4.202c0,1.978,1.598,3.584,3.562,3.584h4.328c1.965,0,3.563-1.606,3.563-3.584l0.001-4.407
		C137.819,161.892,139.653,158.506,139.653,154.781 M131.166,170.615h-4.328c-1.03,0-1.904-0.69-2.188-1.638h8.705
		C133.072,169.925,132.198,170.615,131.166,170.615 M133.452,167.646h-8.899l-0.001-1.249h8.9V167.646z M133.76,163.004
		l-0.308,0.187v1.873h-8.9v-1.699l-0.328-0.183c-3.035-1.693-4.922-4.911-4.922-8.4c0-5.292,4.278-9.596,9.537-9.596
		c5.26,0,9.537,4.304,9.537,9.596C138.376,158.175,136.651,161.247,133.76,163.004"/>
</g>
</svg>
