<?xml version="1.0" encoding="utf-8"?>
<!-- Generator: Adobe Illustrator 16.0.0, SVG Export Plug-In . SVG Version: 6.00 Build 0)  -->
<!DOCTYPE svg PUBLIC "-//W3C//DTD SVG 1.1//EN" "http://www.w3.org/Graphics/SVG/1.1/DTD/svg11.dtd">
<svg version="1.1" id="Layer_1" xmlns="http://www.w3.org/2000/svg" xmlns:xlink="http://www.w3.org/1999/xlink" x="0px" y="0px"
	 width="64.882px" height="65.928px" viewBox="0 0 64.882 65.928" enable-background="new 0 0 64.882 65.928" xml:space="preserve">
<g>
	<defs>
		<rect id="SVGID_1_" y="0.001" width="64.882" height="65.927"/>
	</defs>
	<clipPath id="SVGID_2_">
		<use xlink:href="#SVGID_1_"  overflow="visible"/>
	</clipPath>
	
		<circle clip-path="url(#SVGID_2_)" fill="none" stroke="#41C3D2" stroke-width="3" stroke-linecap="round" stroke-linejoin="round" stroke-miterlimit="10" cx="45.068" cy="46.115" r="18.313"/>
	
		<polyline clip-path="url(#SVGID_2_)" fill="none" stroke="#41C3D2" stroke-width="3" stroke-linecap="round" stroke-linejoin="round" stroke-miterlimit="10" points="
		34.427,41.427 39.71,54.111 44.503,41.427 49.638,54.111 54.355,41.427 	"/>
	
		<line clip-path="url(#SVGID_2_)" fill="none" stroke="#41C3D2" stroke-width="3" stroke-linecap="round" stroke-linejoin="round" stroke-miterlimit="10" x1="32.517" y1="46.882" x2="56.264" y2="46.882"/>
	
		<ellipse clip-path="url(#SVGID_2_)" fill="none" stroke="#41C3D2" stroke-width="3" stroke-linecap="round" stroke-linejoin="round" stroke-miterlimit="10" cx="23.284" cy="10.431" rx="21.784" ry="8.931"/>
	
		<path clip-path="url(#SVGID_2_)" fill="none" stroke="#41C3D2" stroke-width="3" stroke-linecap="round" stroke-linejoin="round" stroke-miterlimit="10" d="
		M45.068,20.055c0,3.982-6.357,7.356-15.139,8.508c-2.095,0.275-4.328,0.423-6.646,0.423c-12.03,0-21.783-3.998-21.783-8.931"/>
	
		<path clip-path="url(#SVGID_2_)" fill="none" stroke="#41C3D2" stroke-width="3" stroke-linecap="round" stroke-linejoin="round" stroke-miterlimit="10" d="
		M28.482,38.354c-1.666,0.167-3.406,0.256-5.198,0.256c-12.031,0-21.783-3.999-21.783-8.932"/>
	
		<path clip-path="url(#SVGID_2_)" fill="none" stroke="#41C3D2" stroke-width="3" stroke-linecap="round" stroke-linejoin="round" stroke-miterlimit="10" d="
		M30.779,58.314c-2.337,0.352-4.861,0.543-7.495,0.543c-12.03,0-21.783-3.999-21.783-8.931"/>
	
		<path clip-path="url(#SVGID_2_)" fill="none" stroke="#41C3D2" stroke-width="3" stroke-linecap="round" stroke-linejoin="round" stroke-miterlimit="10" d="
		M26.755,48.121c-1.13,0.074-2.289,0.113-3.472,0.113c-12.03,0-21.783-3.999-21.783-8.931"/>
	
		<line clip-path="url(#SVGID_2_)" fill="none" stroke="#41C3D2" stroke-width="3" stroke-linecap="round" stroke-linejoin="round" stroke-miterlimit="10" x1="1.5" y1="10.431" x2="1.5" y2="49.927"/>
	
		<line clip-path="url(#SVGID_2_)" fill="none" stroke="#41C3D2" stroke-width="3" stroke-linecap="round" stroke-linejoin="round" stroke-miterlimit="10" x1="45.068" y1="10.431" x2="45.068" y2="27.803"/>
</g>
</svg>
