<?xml version="1.0" encoding="utf-8"?>
<!-- Generator: Adobe Illustrator 16.0.0, SVG Export Plug-In . SVG Version: 6.00 Build 0)  -->
<!DOCTYPE svg PUBLIC "-//W3C//DTD SVG 1.1//EN" "http://www.w3.org/Graphics/SVG/1.1/DTD/svg11.dtd">
<svg version="1.1" id="Layer_1" xmlns="http://www.w3.org/2000/svg" xmlns:xlink="http://www.w3.org/1999/xlink" x="0px" y="0px"
	 width="66.547px" height="55.356px" viewBox="0 0 66.547 55.356" enable-background="new 0 0 66.547 55.356" xml:space="preserve">
<g>
	<defs>
		<rect id="SVGID_1_" y="0" width="66.547" height="55.356"/>
	</defs>
	<clipPath id="SVGID_2_">
		<use xlink:href="#SVGID_1_"  overflow="visible"/>
	</clipPath>
	
		<circle clip-path="url(#SVGID_2_)" fill="none" stroke="#41C3D2" stroke-width="3" stroke-linecap="round" stroke-linejoin="round" stroke-miterlimit="10" cx="15.347" cy="46.875" r="6.982"/>
	
		<circle clip-path="url(#SVGID_2_)" fill="none" stroke="#41C3D2" stroke-width="3" stroke-linecap="round" stroke-linejoin="round" stroke-miterlimit="10" cx="49.958" cy="46.875" r="6.981"/>
	
		<path clip-path="url(#SVGID_2_)" fill="none" stroke="#41C3D2" stroke-width="3" stroke-linecap="round" stroke-linejoin="round" stroke-miterlimit="10" d="
		M55.697,13.166c0-1.838-1.828-3.675-4.322-3.675h-9.701"/>
	
		<path clip-path="url(#SVGID_2_)" fill="none" stroke="#41C3D2" stroke-width="3" stroke-linecap="round" stroke-linejoin="round" stroke-miterlimit="10" d="
		M56.854,45.641h6.093c1.154,0,2.099-0.944,2.099-2.1V26.073c0-1.156-0.944-1.816-2.099-1.816"/>
	
		<line clip-path="url(#SVGID_2_)" fill="none" stroke="#41C3D2" stroke-width="3" stroke-linecap="round" stroke-linejoin="round" stroke-miterlimit="10" x1="43.14" y1="45.641" x2="22.041" y2="45.641"/>
	
		<path clip-path="url(#SVGID_2_)" fill="none" stroke="#41C3D2" stroke-width="3" stroke-linecap="round" stroke-linejoin="round" stroke-miterlimit="10" d="
		M48.167,24.257h14.285c0-5.546-2.941-11.091-8.189-11.091h-6.096V24.257z"/>
	
		<path clip-path="url(#SVGID_2_)" fill="none" stroke="#41C3D2" stroke-width="3" stroke-linecap="round" stroke-linejoin="round" stroke-miterlimit="10" d="
		M41.441,45.641V3.6c0-1.155-0.945-2.1-2.102-2.1H3.6c-1.155,0-2.1,0.945-2.1,2.1v39.941c0,1.155,0.945,2.1,2.1,2.1h5.12"/>
	
		<line clip-path="url(#SVGID_2_)" fill="none" stroke="#41C3D2" stroke-width="3" stroke-linecap="round" stroke-linejoin="round" stroke-miterlimit="10" x1="59.775" y1="29.966" x2="59.775" y2="33.741"/>
</g>
</svg>
