<?xml version="1.0" encoding="utf-8"?>
<!-- Generator: Adobe Illustrator 16.0.0, SVG Export Plug-In . SVG Version: 6.00 Build 0)  -->
<!DOCTYPE svg PUBLIC "-//W3C//DTD SVG 1.1//EN" "http://www.w3.org/Graphics/SVG/1.1/DTD/svg11.dtd">
<svg version="1.1" id="Layer_1" xmlns="http://www.w3.org/2000/svg" xmlns:xlink="http://www.w3.org/1999/xlink" x="0px" y="0px"
	 width="66.75px" height="49.75px" viewBox="0 0 66.75 49.75" enable-background="new 0 0 66.75 49.75" xml:space="preserve">
<g>
	<defs>
		<rect id="SVGID_1_" width="66.75" height="49.75"/>
	</defs>
	<clipPath id="SVGID_2_">
		<use xlink:href="#SVGID_1_"  overflow="visible"/>
	</clipPath>
	
		<path clip-path="url(#SVGID_2_)" fill="none" stroke="#41C3D2" stroke-width="3" stroke-linecap="round" stroke-linejoin="round" stroke-miterlimit="10" d="
		M63.052,48.25H3.699c-1.21,0-2.199-1.002-2.199-2.227V3.727C1.5,2.502,2.489,1.5,3.699,1.5h59.353c1.209,0,2.198,1.002,2.198,2.227
		v42.297C65.25,47.248,64.261,48.25,63.052,48.25z"/>
	
		<line clip-path="url(#SVGID_2_)" fill="none" stroke="#41C3D2" stroke-width="3" stroke-linecap="round" stroke-linejoin="round" stroke-miterlimit="10" x1="1.5" y1="16.559" x2="65.25" y2="16.559"/>
	
		<circle clip-path="url(#SVGID_2_)" fill="none" stroke="#41C3D2" stroke-width="3" stroke-linecap="round" stroke-linejoin="round" stroke-miterlimit="10" cx="45.046" cy="34.896" r="4.855"/>
	
		<path clip-path="url(#SVGID_2_)" fill="none" stroke="#41C3D2" stroke-width="3" stroke-linecap="round" stroke-linejoin="round" stroke-miterlimit="10" d="
		M49.591,30.647l1.264-0.493c2.055-0.454,4.247,0.476,5.306,2.418c1.284,2.354,0.416,5.304-1.939,6.587
		c-1.104,0.602-2.338,0.731-3.471,0.455c0,0-0.563-0.11-1.255-0.499"/>
</g>
</svg>
