<?xml version="1.0" encoding="utf-8"?>
<!-- Generator: Adobe Illustrator 16.0.0, SVG Export Plug-In . SVG Version: 6.00 Build 0)  -->
<!DOCTYPE svg PUBLIC "-//W3C//DTD SVG 1.1//EN" "http://www.w3.org/Graphics/SVG/1.1/DTD/svg11.dtd">
<svg version="1.1" id="Layer_1" xmlns="http://www.w3.org/2000/svg" xmlns:xlink="http://www.w3.org/1999/xlink" x="0px" y="0px"
	 width="64.885px" height="60.296px" viewBox="0 0 64.885 60.296" enable-background="new 0 0 64.885 60.296" xml:space="preserve">
<g>
	<defs>
		<rect id="SVGID_1_" y="0" width="64.885" height="60.297"/>
	</defs>
	<clipPath id="SVGID_2_">
		<use xlink:href="#SVGID_1_"  overflow="visible"/>
	</clipPath>
	
		<path clip-path="url(#SVGID_2_)" fill="none" stroke="#41C3D2" stroke-width="3" stroke-linecap="round" stroke-linejoin="round" stroke-miterlimit="10" d="
		M34.736,1.5C18.915,1.5,6.089,14.326,6.089,30.147c0,4.841,1.211,9.395,3.332,13.394L1.5,56.697l16.667-3.191l-0.021-0.029
		c4.685,3.337,10.4,5.32,16.59,5.32c15.822,0,28.648-12.827,28.648-28.649S50.559,1.5,34.736,1.5z"/>
	
		<line clip-path="url(#SVGID_2_)" fill="none" stroke="#41C3D2" stroke-width="3" stroke-linecap="round" stroke-linejoin="round" stroke-miterlimit="10" x1="34.893" y1="28.129" x2="34.893" y2="25.72"/>
	
		<line clip-path="url(#SVGID_2_)" fill="none" stroke="#41C3D2" stroke-width="3" stroke-linecap="round" stroke-linejoin="round" stroke-miterlimit="10" x1="34.893" y1="36.38" x2="34.893" y2="34.13"/>
	
		<polyline clip-path="url(#SVGID_2_)" fill="none" stroke="#41C3D2" stroke-width="3" stroke-linecap="round" stroke-linejoin="round" stroke-miterlimit="10" points="
		18.891,24.775 22.544,23.463 22.544,37.637 	"/>
	
		<polyline clip-path="url(#SVGID_2_)" fill="none" stroke="#41C3D2" stroke-width="3" stroke-linecap="round" stroke-linejoin="round" stroke-miterlimit="10" points="
		45.141,24.775 48.794,23.463 48.794,37.637 	"/>
</g>
</svg>
