<?xml version="1.0" encoding="utf-8"?>
<!-- Generator: Adobe Illustrator 16.0.0, SVG Export Plug-In . SVG Version: 6.00 Build 0)  -->
<!DOCTYPE svg PUBLIC "-//W3C//DTD SVG 1.1//EN" "http://www.w3.org/Graphics/SVG/1.1/DTD/svg11.dtd">
<svg version="1.1" id="Layer_1" xmlns="http://www.w3.org/2000/svg" xmlns:xlink="http://www.w3.org/1999/xlink" x="0px" y="0px"
	 width="57.578px" height="66.153px" viewBox="0 0 57.578 66.153" enable-background="new 0 0 57.578 66.153" xml:space="preserve">
<g>
	<defs>
		<rect id="SVGID_1_" width="57.578" height="66.153"/>
	</defs>
	<clipPath id="SVGID_2_">
		<use xlink:href="#SVGID_1_"  overflow="visible"/>
	</clipPath>
	
		<path clip-path="url(#SVGID_2_)" fill="none" stroke="#41C3D2" stroke-width="3" stroke-linecap="round" stroke-linejoin="round" stroke-miterlimit="10" d="
		M56.078,64.653c0-7.285-8.442-23.024-19.938-26.236c-1.325-0.474-1.845-2.182-0.162-3.188c6.205-2.759,10.538-8.772,10.538-16.001
		C46.517,9.437,38.58,1.5,28.789,1.5S11.061,9.437,11.061,19.228c0,7.067,4.141,13.155,10.125,16.001
		c1.796,0.853,1.736,2.774,0.184,3.188C9.91,41.652,1.5,57.612,1.5,64.653"/>
	
		<path clip-path="url(#SVGID_2_)" fill="none" stroke="#41C3D2" stroke-width="3" stroke-linecap="round" stroke-linejoin="round" stroke-miterlimit="10" d="
		M31.279,45.864c-2.32-0.943-4.318-0.292-4.979-0.015l-2.045,15.359l4.697,3.444l4.37-3.435L31.279,45.864z"/>
	
		<path clip-path="url(#SVGID_2_)" fill="none" stroke="#41C3D2" stroke-width="3" stroke-linecap="round" stroke-linejoin="round" stroke-miterlimit="10" d="
		M31.279,45.864l1.295-5.325c-3.536-1.896-6.628-0.527-7.572-0.01l1.298,5.32"/>
	
		<line clip-path="url(#SVGID_2_)" fill="none" stroke="#41C3D2" stroke-width="3" stroke-linecap="round" stroke-linejoin="round" stroke-miterlimit="10" x1="21.371" y1="38.417" x2="25.001" y2="40.529"/>
	
		<line clip-path="url(#SVGID_2_)" fill="none" stroke="#41C3D2" stroke-width="3" stroke-linecap="round" stroke-linejoin="round" stroke-miterlimit="10" x1="32.574" y1="40.539" x2="36.14" y2="38.417"/>
</g>
</svg>
