<?xml version="1.0" encoding="utf-8"?>
<!-- Generator: Adobe Illustrator 16.0.0, SVG Export Plug-In . SVG Version: 6.00 Build 0)  -->
<!DOCTYPE svg PUBLIC "-//W3C//DTD SVG 1.1//EN" "http://www.w3.org/Graphics/SVG/1.1/DTD/svg11.dtd">
<svg version="1.1" id="Layer_1" xmlns="http://www.w3.org/2000/svg" xmlns:xlink="http://www.w3.org/1999/xlink" x="0px" y="0px"
	 width="66.038px" height="61.169px" viewBox="0 0 66.038 61.169" enable-background="new 0 0 66.038 61.169" xml:space="preserve">
<g>
	<defs>
		<rect id="SVGID_1_" width="66.038" height="61.169"/>
	</defs>
	<clipPath id="SVGID_2_">
		<use xlink:href="#SVGID_1_"  overflow="visible"/>
	</clipPath>
	
		<path clip-path="url(#SVGID_2_)" fill="none" stroke="#41C3D2" stroke-width="3" stroke-linecap="round" stroke-linejoin="round" stroke-miterlimit="10" d="
		M47.888,59.669c0-6.191-7.175-19.569-16.946-22.299c-1.126-0.404-1.567-1.855-0.137-2.709c5.274-2.345,8.957-7.457,8.957-13.6
		c0-8.322-6.747-15.068-15.067-15.068c-8.322,0-15.068,6.746-15.068,15.068c0,6.006,3.52,11.18,8.606,13.6
		c1.527,0.724,1.475,2.357,0.156,2.709C8.647,40.119,1.5,53.685,1.5,59.669"/>
	
		<path clip-path="url(#SVGID_2_)" fill="none" stroke="#41C3D2" stroke-width="3" stroke-linecap="round" stroke-linejoin="round" stroke-miterlimit="10" d="
		M64.538,55.176c0-6.191-7.175-19.568-16.946-22.299c-1.126-0.402-1.566-1.854-0.137-2.708c5.273-2.345,8.957-7.456,8.957-13.6
		c0-8.322-6.746-15.068-15.068-15.068c-4.161,0-7.928,1.686-10.655,4.413"/>
</g>
</svg>
