<svg xmlns="http://www.w3.org/2000/svg" width="32" height="32">
    <path fill="#41C3D2" fill-rule="evenodd" d="M16 0c8.837 0 16 7.163 16 16 0 8.836-7.163 16-16 16S0 24.836 0 16C0 7.163 7.163 0 16 0z"/>
    <path fill="#FFF" fill-rule="evenodd" d="M23.587 13.045l-8.644 9.239a1.391 1.391 0 0 1-.555.323c-.024.028-.034.064-.061.091a1.443 1.443 0 0 1-2.023 0l-4.798-5.613a1.403 1.403 0 0 1 0-2.001 1.443 1.443 0 0 1 2.023 0l3.965 4.639 8.093-8.65a1.428 1.428 0 0 1 2 0 1.381 1.381 0 0 1 0 1.972z"/>
</svg>
