<?xml version="1.0" encoding="utf-8"?>
<!-- Generator: Adobe Illustrator 16.0.0, SVG Export Plug-In . SVG Version: 6.00 Build 0)  -->
<!DOCTYPE svg PUBLIC "-//W3C//DTD SVG 1.1//EN" "http://www.w3.org/Graphics/SVG/1.1/DTD/svg11.dtd">
<svg version="1.1" id="Layer_1" xmlns="http://www.w3.org/2000/svg" xmlns:xlink="http://www.w3.org/1999/xlink" x="0px" y="0px"
	 width="8.519px" height="12.188px" viewBox="0.794 0 8.519 12.188" enable-background="new 0.794 0 8.519 12.188"
	 xml:space="preserve">
<path fill="#FF7800" d="M2.997,0.397l5.628,4.554c0.342,0.318,0.658,0.776,0.534,1.19c0.018,0.314-0.302,0.636-0.546,0.88
	l-5.638,4.682c-0.472,0.468-1.229,0.482-1.718,0.032c-0.467-0.429-0.498-1.157-0.069-1.624c0.012-0.013,0.025-0.025,0.038-0.039
	l4.996-4.033L1.279,2.125C0.803,1.688,0.771,0.949,1.207,0.472C1.22,0.458,1.233,0.444,1.248,0.43
	C1.728-0.046,2.499-0.061,2.997,0.397z"/>
</svg>
