<?xml version="1.0" encoding="utf-8"?>
<!-- Generator: Adobe Illustrator 16.0.0, SVG Export Plug-In . SVG Version: 6.00 Build 0)  -->
<!DOCTYPE svg PUBLIC "-//W3C//DTD SVG 1.1//EN" "http://www.w3.org/Graphics/SVG/1.1/DTD/svg11.dtd">
<svg version="1.1" id="Layer_1" xmlns="http://www.w3.org/2000/svg" xmlns:xlink="http://www.w3.org/1999/xlink" x="0px" y="0px"
	 width="12.396px" height="8.594px" viewBox="0 0 12.396 8.594" enable-background="new 0 0 12.396 8.594" xml:space="preserve">
<path fill="#FFFFFF" d="M11.831,8.086C11.817,8.1,11.805,8.113,11.79,8.127c-0.477,0.436-1.217,0.404-1.651-0.072L6.223,3.111
	L2.19,8.107C2.176,8.122,2.163,8.133,2.151,8.146C1.684,8.575,0.955,8.543,0.527,8.077c-0.45-0.489-0.437-1.246,0.032-1.718
	L5.24,0.721c0.244-0.244,0.566-0.563,0.88-0.547C6.534,0.05,6.993,0.366,7.311,0.708l4.553,5.628
	C12.323,6.834,12.307,7.605,11.831,8.086z"/>
</svg>
