<?xml version="1.0" encoding="utf-8"?>
<!-- Generator: Adobe Illustrator 16.0.0, SVG Export Plug-In . SVG Version: 6.00 Build 0)  -->
<!DOCTYPE svg PUBLIC "-//W3C//DTD SVG 1.1//EN" "http://www.w3.org/Graphics/SVG/1.1/DTD/svg11.dtd">
<svg version="1.1" id="Layer_1" xmlns="http://www.w3.org/2000/svg" xmlns:xlink="http://www.w3.org/1999/xlink" x="0px" y="0px"
	 width="12.396px" height="8.604px" viewBox="0 0 12.396 8.604" enable-background="new 0 0 12.396 8.604" xml:space="preserve">
<path fill="#738083" d="M11.864,2.264L7.311,7.892C6.993,8.234,6.534,8.55,6.12,8.426C5.807,8.444,5.485,8.124,5.24,7.88
	L0.559,2.241C0.091,1.769,0.076,1.012,0.527,0.523c0.429-0.467,1.157-0.498,1.624-0.068C2.163,0.466,2.176,0.479,2.19,0.492
	L6.223,5.49l3.915-4.943c0.436-0.478,1.176-0.509,1.652-0.072c0.016,0.013,0.027,0.026,0.041,0.041
	C12.307,0.995,12.323,1.766,11.864,2.264z"/>
</svg>
