<?xml version="1.0" encoding="utf-8"?>
<!-- Generator: Adobe Illustrator 16.0.0, SVG Export Plug-In . SVG Version: 6.00 Build 0)  -->
<!DOCTYPE svg PUBLIC "-//W3C//DTD SVG 1.1//EN" "http://www.w3.org/Graphics/SVG/1.1/DTD/svg11.dtd">
<svg version="1.1" id="Layer_1" xmlns="http://www.w3.org/2000/svg" xmlns:xlink="http://www.w3.org/1999/xlink" x="0px" y="0px"
	 width="65.547px" height="54.356px" viewBox="0 0 65.547 54.356" enable-background="new 0 0 65.547 54.356" xml:space="preserve">
<g>
	<defs>
		<rect id="SVGID_1_" y="0" width="65.547" height="54.356"/>
	</defs>
	<clipPath id="SVGID_2_">
		<use xlink:href="#SVGID_1_"  overflow="visible"/>
	</clipPath>
	
		<circle clip-path="url(#SVGID_2_)" fill="none" stroke="#7C7C7C" stroke-width="2" stroke-linecap="round" stroke-linejoin="round" stroke-miterlimit="10" cx="14.847" cy="46.375" r="6.982"/>
	
		<circle clip-path="url(#SVGID_2_)" fill="none" stroke="#7C7C7C" stroke-width="2" stroke-linecap="round" stroke-linejoin="round" stroke-miterlimit="10" cx="49.458" cy="46.375" r="6.981"/>
	
		<path clip-path="url(#SVGID_2_)" fill="none" stroke="#7C7C7C" stroke-width="2" stroke-linecap="round" stroke-linejoin="round" stroke-miterlimit="10" d="
		M55.197,12.666c0-1.838-1.828-3.675-4.322-3.675h-9.701"/>
	
		<path clip-path="url(#SVGID_2_)" fill="none" stroke="#7C7C7C" stroke-width="2" stroke-linecap="round" stroke-linejoin="round" stroke-miterlimit="10" d="
		M56.354,45.141h6.093c1.154,0,2.099-0.944,2.099-2.1V25.573c0-1.156-0.944-1.816-2.099-1.816"/>
	
		<line clip-path="url(#SVGID_2_)" fill="none" stroke="#7C7C7C" stroke-width="2" stroke-linecap="round" stroke-linejoin="round" stroke-miterlimit="10" x1="42.64" y1="45.141" x2="21.541" y2="45.141"/>
	
		<path clip-path="url(#SVGID_2_)" fill="none" stroke="#7C7C7C" stroke-width="2" stroke-linecap="round" stroke-linejoin="round" stroke-miterlimit="10" d="
		M47.667,23.757h14.285c0-5.546-2.941-11.091-8.189-11.091h-6.096V23.757z"/>
	
		<path clip-path="url(#SVGID_2_)" fill="none" stroke="#7C7C7C" stroke-width="2" stroke-linecap="round" stroke-linejoin="round" stroke-miterlimit="10" d="
		M40.941,45.141V3.1c0-1.155-0.945-2.1-2.102-2.1H3.1C1.945,1,1,1.945,1,3.1v39.941c0,1.155,0.945,2.1,2.1,2.1h5.12"/>
	
		<line clip-path="url(#SVGID_2_)" fill="none" stroke="#7C7C7C" stroke-width="2" stroke-linecap="round" stroke-linejoin="round" stroke-miterlimit="10" x1="59.275" y1="29.466" x2="59.275" y2="33.241"/>
</g>
</svg>
