<svg xmlns="http://www.w3.org/2000/svg" width="39" height="35">
    <path fill="#BFCACD" fill-rule="evenodd" d="M39.002 10.001c0-5.869-4.566-10.002-10.201-10.002-4.145 0-7.706 2.578-9.303 6.278-1.595-3.7-5.155-6.278-9.303-6.278C4.562-.001-.006 4.132-.006 10.001c0 .91.385 4.19 2.551 7.5 5.282 8.063 15.664 17.502 16.953 17.502 1.483 0 11.61-9.492 16.654-17.502 1.712-2.72 2.85-6.71 2.85-7.5z"/>
    <path fill="#FFF" fill-rule="evenodd" d="M3.876 5.61l2.332-1.886a3 3 0 1 1 3.774 4.664l-2.333 1.887A3 3 0 0 1 3.876 5.61z" opacity=".4"/>
</svg>
