<?xml version="1.0" encoding="utf-8"?>
<!-- Generator: Adobe Illustrator 16.0.0, SVG Export Plug-In . SVG Version: 6.00 Build 0)  -->
<!DOCTYPE svg PUBLIC "-//W3C//DTD SVG 1.1//EN" "http://www.w3.org/Graphics/SVG/1.1/DTD/svg11.dtd">
<svg version="1.1" id="Layer_1" xmlns="http://www.w3.org/2000/svg" xmlns:xlink="http://www.w3.org/1999/xlink" x="0px" y="0px"
	 width="63.885px" height="59.296px" viewBox="0 0 63.885 59.296" enable-background="new 0 0 63.885 59.296" xml:space="preserve">
<g>
	<defs>
		<polyline id="SVGID_1_" points="72.5,-4.037 67.938,67.171 -11.667,73.796 -16.333,-5.537 		"/>
	</defs>
	<clipPath id="SVGID_2_">
		<use xlink:href="#SVGID_1_"  overflow="visible"/>
	</clipPath>
	
		<path clip-path="url(#SVGID_2_)" fill="none" stroke="#5FE3FF" stroke-width="2" stroke-linecap="round" stroke-linejoin="round" stroke-miterlimit="10" d="
		M34.237,1C18.415,1,5.589,13.826,5.589,29.648c0,4.841,1.211,9.396,3.331,13.394L1,56.196l16.667-3.189l-0.021-0.03
		c4.685,3.337,10.401,5.32,16.591,5.32c15.82,0,28.647-12.826,28.647-28.648C62.885,13.826,50.058,1,34.237,1z"/>
	<path clip-path="url(#SVGID_2_)" fill="#5FE3FF" stroke="#5FE3FF" stroke-miterlimit="10" d="M25.715,30.065
		c0,1.185-0.96,2.145-2.145,2.145c-1.184,0-2.144-0.96-2.144-2.145c0-1.185,0.96-2.145,2.144-2.145
		C24.754,27.92,25.715,28.88,25.715,30.065"/>
	<path clip-path="url(#SVGID_2_)" fill="#5FE3FF" stroke="#5FE3FF" stroke-miterlimit="10" d="M36.695,30.065
		c0,1.185-0.96,2.145-2.146,2.145c-1.184,0-2.144-0.96-2.144-2.145c0-1.185,0.96-2.145,2.144-2.145
		C35.735,27.92,36.695,28.88,36.695,30.065"/>
	<path clip-path="url(#SVGID_2_)" fill="#5FE3FF" stroke="#5FE3FF" stroke-miterlimit="10" d="M47.676,30.065
		c0,1.185-0.96,2.145-2.146,2.145c-1.184,0-2.144-0.96-2.144-2.145c0-1.185,0.96-2.145,2.144-2.145
		C46.716,27.92,47.676,28.88,47.676,30.065"/>
</g>
</svg>
