<?xml version="1.0" encoding="utf-8"?>
<!-- Generator: Adobe Illustrator 16.0.0, SVG Export Plug-In . SVG Version: 6.00 Build 0)  -->
<!DOCTYPE svg PUBLIC "-//W3C//DTD SVG 1.1//EN" "http://www.w3.org/Graphics/SVG/1.1/DTD/svg11.dtd">
<svg version="1.1" id="Layer_1" xmlns="http://www.w3.org/2000/svg" xmlns:xlink="http://www.w3.org/1999/xlink" x="0px" y="0px"
	 width="65.981px" height="58.792px" viewBox="0 0 65.981 58.792" enable-background="new 0 0 65.981 58.792" xml:space="preserve">
<g>
	<defs>
		<rect id="SVGID_1_" width="65.981" height="58.792"/>
	</defs>
	<clipPath id="SVGID_2_">
		<use xlink:href="#SVGID_1_"  overflow="visible"/>
	</clipPath>
	<path clip-path="url(#SVGID_2_)" fill="none" stroke="#738083" stroke-width="3" stroke-miterlimit="10" d="M46.75,18.564
		L26.393,38.921c-2.159,2.156-5.67,2.159-7.831,0c-2.159-2.16-2.159-5.673,0-7.833L36.57,13.079
		c0.001-0.001,0.003-0.002,0.004-0.003l8.2-8.201c4.502-4.5,11.826-4.5,16.326,0c2.181,2.18,3.381,5.079,3.381,8.163
		s-1.2,5.982-3.381,8.162L28.986,52.585c-6.278,6.278-16.494,6.275-22.769,0C3.176,49.543,1.5,45.5,1.5,41.2
		c0-4.302,1.676-8.345,4.717-11.385L32.474,4.289"/>
</g>
</svg>
